<?xml version="1.0" standalone="no"?>
<!DOCTYPE svg PUBLIC "-//W3C//DTD SVG 20010904//EN"
 "http://www.w3.org/TR/2001/REC-SVG-20010904/DTD/svg10.dtd">
<svg version="1.0" xmlns="http://www.w3.org/2000/svg"
 width="225.000000pt" height="225.000000pt" viewBox="0 0 225.000000 225.000000"
 preserveAspectRatio="xMidYMid meet">
<metadata>
Created by potrace 1.14, written by Peter Selinger 2001-2017
</metadata>
<g transform="translate(0.000000,225.000000) scale(0.100000,-0.100000)"
fill="#000000" stroke="none">
<path d="M814 1734 l-17 -45 129 -130 128 -129 -39 -42 c-22 -24 -80 -84 -129
-135 -127 -131 -128 -123 37 -290 l131 -132 -59 -63 c-33 -35 -89 -93 -125
-131 -36 -37 -66 -71 -68 -75 -1 -5 4 -25 13 -45 l15 -37 296 2 296 3 16 38
15 39 -74 76 c-41 43 -99 103 -129 135 l-55 57 132 133 c165 167 164 159 37
290 -49 51 -107 111 -129 135 l-39 42 128 129 129 130 -17 45 -18 46 -293 0
-293 0 -18 -46z m470 -62 c3 -5 -32 -45 -77 -90 l-82 -82 -83 83 c-45 46 -79
86 -76 90 10 10 312 9 318 -1z m56 -547 c0 -5 -48 -58 -107 -117 l-108 -108
-107 107 c-60 59 -108 112 -108 118 0 5 48 58 107 117 l108 108 107 -107 c60
-59 108 -112 108 -118z m-130 -460 l85 -85 -170 0 -170 0 85 85 c47 47 85 85
85 85 0 0 38 -38 85 -85z"/>
</g>
</svg>
